<svg width="35" height="35" viewBox="0 0 35 35" fill="none" xmlns="http://www.w3.org/2000/svg">
<path d="M24.7917 9.47982C26.9189 9.47982 28.9591 10.3249 30.4633 11.8291C31.9675 13.3333 32.8125 15.3734 32.8125 17.5007C32.8125 19.6279 31.9675 21.668 30.4633 23.1722C28.9591 24.6764 26.9189 25.5215 24.7917 25.5215M24.7917 13.8548C25.7586 13.8548 26.6859 14.2389 27.3697 14.9227C28.0534 15.6064 28.4375 16.5337 28.4375 17.5007C28.4375 18.4676 28.0534 19.3949 27.3697 20.0786C26.6859 20.7624 25.7586 21.1465 24.7917 21.1465M21.1458 31.3548H20.7813L20.0185 30.5556C17.8398 28.2733 15.2208 26.4566 12.3199 25.2153C9.41905 23.9741 6.29654 23.334 3.14125 23.334H2.1875V11.6673H3.14125C6.29654 11.6673 9.41905 11.0272 12.3199 9.78597C15.2208 8.5447 17.8398 6.72798 20.0185 4.44565L20.7813 3.64648H21.1458V31.3548Z" stroke="white"/>
</svg>
