<svg width="29" height="33" viewBox="0 0 29 33" fill="none" xmlns="http://www.w3.org/2000/svg">
<path d="M27.5968 0.00195881H4.67742C3.47463 -0.0333397 2.3069 0.409627 1.43014 1.23378C0.553379 2.05794 0.0390972 3.19606 0 4.39873V27.5987C0.0488124 29.0099 0.655336 30.3441 1.68653 31.3086C2.71772 32.2732 4.08939 32.7893 5.50065 32.7439H27.5968C27.9674 32.7391 28.3215 32.5897 28.5836 32.3275C28.8458 32.0654 28.9952 31.7113 29 31.3407V1.40518C28.9952 1.03453 28.8458 0.680426 28.5836 0.418313C28.3215 0.1562 27.9674 0.00680456 27.5968 0.00195881ZM26.1935 29.9374H5.50065C4.83343 29.9838 4.17509 29.7635 3.67002 29.3251C3.16495 28.8867 2.85439 28.2658 2.80645 27.5987C2.85439 26.9316 3.16495 26.3108 3.67002 25.8724C4.17509 25.4339 4.83343 25.2137 5.50065 25.26H26.1935V29.9374ZM26.1935 22.4536H5.50065C4.55872 22.4546 3.6322 22.6927 2.80645 23.1458V4.39873C2.8493 3.942 3.06892 3.52009 3.41844 3.22299C3.76797 2.9259 4.21975 2.77712 4.67742 2.80841H26.1935V22.4536Z" fill="#E6E6E6"/>
<path d="M8.41934 10.2923H20.5806C20.9528 10.2923 21.3097 10.1445 21.5729 9.8813C21.836 9.61814 21.9839 9.26122 21.9839 8.88907C21.9839 8.51691 21.836 8.15999 21.5729 7.89683C21.3097 7.63368 20.9528 7.48584 20.5806 7.48584H8.41934C8.04718 7.48584 7.69027 7.63368 7.42711 7.89683C7.16395 8.15999 7.01611 8.51691 7.01611 8.88907C7.01611 9.26122 7.16395 9.61814 7.42711 9.8813C7.69027 10.1445 8.04718 10.2923 8.41934 10.2923ZM8.41934 16.8407H20.5806C20.9528 16.8407 21.3097 16.6928 21.5729 16.4297C21.836 16.1665 21.9839 15.8096 21.9839 15.4375C21.9839 15.0653 21.836 14.7084 21.5729 14.4452C21.3097 14.1821 20.9528 14.0342 20.5806 14.0342H8.41934C8.04718 14.0342 7.69027 14.1821 7.42711 14.4452C7.16395 14.7084 7.01611 15.0653 7.01611 15.4375C7.01611 15.8096 7.16395 16.1665 7.42711 16.4297C7.69027 16.6928 8.04718 16.8407 8.41934 16.8407Z" fill="#E6E6E6"/>
</svg>
