<svg width="24" height="24" viewBox="0 0 24 24" fill="none" xmlns="http://www.w3.org/2000/svg">
<path d="M16 10L18.15 10.645C19.523 11.057 20.21 11.263 20.605 11.795C21 12.325 21 13.043 21 14.476V22M8 9H11M8 13H11M12 22V19C12 18.057 12 17.586 11.707 17.293C11.414 17 10.943 17 10 17H9C8.057 17 7.586 17 7.293 17.293C7 17.586 7 18.057 7 19V22M2 22H22" stroke="#E6E6E6" stroke-width="1.5" stroke-linecap="round" stroke-linejoin="round"/>
<path d="M3 22.0001V6.71711C3 4.20711 3 2.95111 3.791 2.32811C4.582 1.70511 5.747 2.04411 8.078 2.72011L13.078 4.17111C14.484 4.57911 15.187 4.78311 15.593 5.34011C16 5.89611 16 6.65311 16 8.16911V22.0001" stroke="#E6E6E6" stroke-width="1.5" stroke-linecap="round" stroke-linejoin="round"/>
</svg>
