<svg width="35" height="35" viewBox="0 0 35 35" fill="none" xmlns="http://www.w3.org/2000/svg">
<path d="M28.4156 29.3909L19.2836 20.2588C18.5544 20.8801 17.7158 21.3608 16.7679 21.7011C15.82 22.0414 14.8672 22.2115 13.9096 22.2115C11.5743 22.2115 9.59779 21.4031 7.98001 19.7863C6.36223 18.1695 5.55334 16.1935 5.55334 13.8582C5.55334 11.5229 6.36126 9.54589 7.97709 7.92714C9.59293 6.30839 11.5685 5.49804 13.9038 5.4961C16.239 5.49415 18.2165 6.30304 19.8363 7.92276C21.456 9.54249 22.2658 11.5195 22.2658 13.8538C22.2658 14.8669 22.0865 15.8473 21.7277 16.7953C21.369 17.7432 20.8974 18.554 20.3131 19.2278L29.4452 28.3584L28.4156 29.3909ZM13.9111 20.7517C15.8458 20.7517 17.4791 20.0858 18.8111 18.7538C20.143 17.4219 20.809 15.788 20.809 13.8523C20.809 11.9167 20.143 10.2833 18.8111 8.95235C17.4791 7.62137 15.8458 6.9554 13.9111 6.95443C11.9763 6.95346 10.3425 7.61943 9.00959 8.95235C7.67668 10.2853 7.01071 11.9186 7.01168 13.8523C7.01265 15.7861 7.67862 17.4194 9.00959 18.7523C10.3406 20.0853 11.9739 20.7512 13.9096 20.7503" fill="white"/>
</svg>
