<svg width="35" height="35" viewBox="0 0 35 35" fill="none" xmlns="http://www.w3.org/2000/svg">
<path fill-rule="evenodd" clip-rule="evenodd" d="M29.1667 8.75009C29.1662 8.20359 29.0429 7.66419 28.8058 7.17178C28.5687 6.67937 28.224 6.24656 27.7971 5.90535C27.3702 5.56414 26.8721 5.32326 26.3396 5.20054C25.807 5.07782 25.2537 5.07638 24.7205 5.19634C24.1873 5.31631 23.688 5.5546 23.2593 5.89359C22.8307 6.23259 22.4837 6.66361 22.2441 7.15478C22.0045 7.64595 21.8784 8.18471 21.8751 8.7312C21.8718 9.27769 21.9913 9.81793 22.225 10.312L12.4469 15.3826C11.9982 14.7537 11.3614 14.2835 10.6283 14.0399C9.8952 13.7964 9.10365 13.7919 8.36786 14.0273C7.63207 14.2627 6.99007 14.7258 6.53447 15.3497C6.07886 15.9735 5.83321 16.726 5.83295 17.4985C5.83268 18.2711 6.07781 19.0237 6.53299 19.6479C6.98816 20.2721 7.62984 20.7356 8.36547 20.9715C9.1011 21.2074 9.89265 21.2035 10.6259 20.9605C11.3592 20.7174 11.9964 20.2477 12.4454 19.619L22.0048 25.2832C21.8572 25.8244 21.8362 26.3923 21.9435 26.9428C22.0508 27.4934 22.2835 28.0119 22.6235 28.458C22.9636 28.9041 23.4018 29.2659 23.9043 29.5152C24.4067 29.7646 24.9599 29.8949 25.5208 29.8959C26.1379 29.8959 26.7449 29.7392 27.2849 29.4405C27.8249 29.1419 28.2802 28.7111 28.6083 28.1885C28.9364 27.6659 29.1264 27.0685 29.1607 26.4524C29.1949 25.8363 29.0722 25.2215 28.8041 24.6658C28.5359 24.11 28.1311 23.6314 27.6275 23.2748C27.1239 22.9182 26.538 22.6952 25.9248 22.6267C25.3115 22.5583 24.6909 22.6467 24.1211 22.8835C23.5513 23.1203 23.0509 23.4979 22.6669 23.9809L13.1323 18.3313L13.0404 18.2847C13.1543 17.7678 13.1543 17.2324 13.0404 16.7155L13.0958 16.6893L22.9396 11.5851C22.9973 11.5554 23.0507 11.5181 23.0985 11.4743C23.6238 11.9412 24.2728 12.2464 24.9675 12.353C25.6621 12.4597 26.3728 12.3633 27.014 12.0755C27.6551 11.7877 28.1994 11.3206 28.5814 10.7307C28.9633 10.1407 29.1665 9.45289 29.1667 8.75009ZM25.5208 6.56259C26.101 6.56259 26.6574 6.79306 27.0676 7.20329C27.4779 7.61353 27.7083 8.16993 27.7083 8.75009C27.7083 9.33025 27.4779 9.88665 27.0676 10.2969C26.6574 10.7071 26.101 10.9376 25.5208 10.9376C24.9407 10.9376 24.3843 10.7071 23.974 10.2969C23.5638 9.88665 23.3333 9.33025 23.3333 8.75009C23.3333 8.16993 23.5638 7.61353 23.974 7.20329C24.3843 6.79306 24.9407 6.56259 25.5208 6.56259ZM9.47916 15.3126C10.0593 15.3126 10.6157 15.5431 11.026 15.9533C11.4362 16.3635 11.6667 16.9199 11.6667 17.5001C11.6667 18.0803 11.4362 18.6367 11.026 19.0469C10.6157 19.4571 10.0593 19.6876 9.47916 19.6876C8.899 19.6876 8.3426 19.4571 7.93236 19.0469C7.52213 18.6367 7.29166 18.0803 7.29166 17.5001C7.29166 16.9199 7.52213 16.3635 7.93236 15.9533C8.3426 15.5431 8.899 15.3126 9.47916 15.3126ZM25.5208 24.0626C26.101 24.0626 26.6574 24.2931 27.0676 24.7033C27.4779 25.1135 27.7083 25.6699 27.7083 26.2501C27.7083 26.8303 27.4779 27.3867 27.0676 27.7969C26.6574 28.2071 26.101 28.4376 25.5208 28.4376C24.9407 28.4376 24.3843 28.2071 23.974 27.7969C23.5638 27.3867 23.3333 26.8303 23.3333 26.2501C23.3333 25.6699 23.5638 25.1135 23.974 24.7033C24.3843 24.2931 24.9407 24.0626 25.5208 24.0626Z" fill="white"/>
</svg>
