<svg width="24" height="24" viewBox="0 0 24 24" fill="none" xmlns="http://www.w3.org/2000/svg">
<path d="M14.423 16.4655C14.1787 16.5839 13.9817 16.7816 13.8643 17.0265C13.747 17.2713 13.7161 17.5487 13.7768 17.8133C13.8376 18.0779 13.9863 18.3141 14.1986 18.4833C14.411 18.6524 14.6745 18.7445 14.946 18.7445C15.1264 18.7445 15.3045 18.7039 15.467 18.6255C15.6295 18.5472 15.7722 18.4333 15.8846 18.2922C15.997 18.1511 16.0762 17.9865 16.1162 17.8106C16.1562 17.6347 16.156 17.452 16.1157 17.2762C16.0754 17.1004 15.9959 16.9359 15.8832 16.795C15.7706 16.6541 15.6276 16.5405 15.4649 16.4625C15.3023 16.3845 15.1241 16.3442 14.9437 16.3445C14.7633 16.3449 14.5853 16.3859 14.423 16.4645L13.336 13.985C12.9135 14.2183 12.4386 14.3404 11.956 14.34C11.6085 14.3405 11.2638 14.2775 10.939 14.154M10.939 14.154L9.036 18.646M10.939 14.154C10.2936 13.9076 9.75975 13.4351 9.43666 12.8245C9.11356 12.2139 9.02324 11.5067 9.1825 10.8345M12.3635 8.673C11.64 8.56717 10.9036 8.74448 10.3075 9.168M9.036 18.646C8.83836 18.5746 8.62858 18.5428 8.41865 18.5524C8.20871 18.562 8.00273 18.6129 7.81247 18.7021C7.6222 18.7914 7.45137 18.9172 7.30974 19.0725C7.1681 19.2277 7.05844 19.4094 6.987 19.607C6.91556 19.8046 6.88375 20.0144 6.89338 20.2243C6.90301 20.4343 6.9539 20.6403 7.04313 20.8305C7.13237 21.0208 7.25821 21.1916 7.41347 21.3333C7.56872 21.4749 7.75036 21.5846 7.948 21.656C8.34721 21.8003 8.78739 21.7801 9.1717 21.5998C9.55601 21.4195 9.85297 21.094 9.99725 20.6948C10.1415 20.2955 10.1213 19.8554 9.94103 19.471C9.76076 19.0867 9.43521 18.7903 9.036 18.646ZM9.1825 10.8345L6.717 10.421M9.1825 10.8345C9.34269 10.161 9.74259 9.56876 10.3075 9.1685L9.3895 7.9625M6.717 10.421C6.64087 10.8794 6.39503 11.2923 6.02836 11.5778C5.66169 11.8632 5.20104 12.0002 4.73798 11.9615C4.27493 11.9228 3.84339 11.7113 3.52916 11.369C3.21492 11.0267 3.04101 10.5787 3.042 10.114C3.04254 9.85841 3.09604 9.6057 3.19912 9.37181C3.3022 9.13792 3.45263 8.92793 3.64092 8.75508C3.82921 8.58223 4.05127 8.45028 4.2931 8.36754C4.53494 8.28479 4.79129 8.25306 5.046 8.27434C5.30071 8.29562 5.54824 8.36944 5.773 8.49116C5.99775 8.61288 6.19484 8.77985 6.35184 8.98155C6.50884 9.18324 6.62235 9.41528 6.68519 9.66303C6.74804 9.91077 6.75887 10.1689 6.717 10.421ZM9.3895 7.9625C9.15511 8.1577 8.85278 8.2518 8.54902 8.22409C8.24526 8.19638 7.96495 8.04914 7.76975 7.81475C7.57455 7.58037 7.48045 7.27804 7.50816 6.97428C7.53587 6.67051 7.68311 6.3902 7.9175 6.195C8.15188 5.9998 8.45421 5.90571 8.75797 5.93341C8.90838 5.94713 9.05461 5.99034 9.18832 6.06058C9.32203 6.13081 9.44059 6.22669 9.53725 6.34275C9.6339 6.45881 9.70675 6.59276 9.75163 6.73697C9.79651 6.88118 9.81255 7.03282 9.79883 7.18323C9.78511 7.33363 9.7419 7.47987 9.67167 7.61357C9.60143 7.74728 9.50555 7.86585 9.3895 7.9625ZM14.9945 9.461C15.1231 9.63809 15.2856 9.78782 15.4726 9.9015C15.6596 10.0152 15.8674 10.0905 16.0838 10.1231C16.3002 10.1557 16.5209 10.145 16.7331 10.0915C16.9453 10.038 17.1447 9.94278 17.3198 9.81146C17.4948 9.68014 17.642 9.5153 17.7528 9.32655C17.8635 9.1378 17.9356 8.92891 17.9649 8.71202C17.9941 8.49514 17.9799 8.27461 17.9231 8.06327C17.8663 7.85193 17.768 7.654 17.634 7.481C17.3714 7.13092 16.9806 6.89947 16.5473 6.83758C16.1141 6.7757 15.6741 6.88844 15.324 7.151C14.9739 7.41356 14.7425 7.80445 14.6806 8.23766C14.6187 8.67086 14.7319 9.11091 14.9945 9.461ZM14.9945 9.461L14.3105 9.886M14.3105 9.886C14.6345 10.359 14.8075 10.919 14.8065 11.492C14.8065 11.7495 14.7715 11.999 14.708 12.237M14.3105 9.886C14.0878 9.55992 13.8003 9.28368 13.4652 9.07478C13.1301 8.86588 12.7553 8.72889 12.3645 8.6725L12.78 5.3375M16.973 12.9885C16.8874 13.2863 16.8722 13.5998 16.9285 13.9045C16.9848 14.2091 17.1111 14.4966 17.2975 14.7441C17.4838 14.9916 17.7251 15.1924 18.0024 15.3307C18.2796 15.469 18.5852 15.541 18.895 15.541C19.1634 15.5505 19.431 15.5058 19.6818 15.4097C19.9326 15.3135 20.1614 15.1678 20.3547 14.9812C20.5479 14.7947 20.7016 14.5712 20.8066 14.3239C20.9116 14.0767 20.9657 13.8108 20.9657 13.5423C20.9657 13.2737 20.9116 13.0078 20.8066 12.7606C20.7016 12.5133 20.5479 12.2898 20.3547 12.1033C20.1614 11.9167 19.9326 11.771 19.6818 11.6748C19.431 11.5787 19.1634 11.534 18.895 11.5435C18.4612 11.5433 18.0391 11.6841 17.6923 11.9447C17.3455 12.2054 17.0934 12.5717 16.973 12.9885ZM16.973 12.9885L14.7075 12.2365C14.6076 12.6048 14.4348 12.9493 14.1993 13.2496C13.9638 13.5499 13.6704 13.7998 13.3365 13.9845M12.78 5.3375C12.845 5.34583 12.911 5.35 12.978 5.35C13.2846 5.35 13.5842 5.25909 13.8391 5.08878C14.094 4.91846 14.2927 4.67639 14.41 4.39316C14.5273 4.10993 14.558 3.79828 14.4982 3.49761C14.4384 3.19694 14.2908 2.92076 14.074 2.70399C13.8572 2.48721 13.5811 2.33959 13.2804 2.27978C12.9797 2.21998 12.6681 2.25067 12.3848 2.36799C12.1016 2.4853 11.8595 2.68397 11.6892 2.93887C11.5189 3.19376 11.428 3.49344 11.428 3.8V3.801C11.4282 4.17758 11.5654 4.54121 11.8142 4.82397C12.0629 5.10673 12.4065 5.28927 12.78 5.3375Z" stroke="#E6E6E6" stroke-width="0.5" stroke-linecap="round" stroke-linejoin="round"/>
</svg>
