<svg width="24" height="24" viewBox="0 0 24 24" fill="none" xmlns="http://www.w3.org/2000/svg">
<g opacity="0.8">
<path fill-rule="evenodd" clip-rule="evenodd" d="M13.026 2.27014C13.2409 2.19859 13.4693 2.17666 13.6939 2.20598C13.9185 2.2353 14.1336 2.31511 14.3229 2.43943C14.5123 2.56375 14.6711 2.72935 14.7873 2.92379C14.9035 3.11824 14.9742 3.33648 14.994 3.56214L15 3.69414V9.18014L18.794 9.94014C19.1102 10.0031 19.3976 10.1663 19.6138 10.4055C19.8299 10.6447 19.9632 10.9472 19.994 11.2681L20 11.4101V19.0001H21C21.2549 19.0004 21.5 19.098 21.6854 19.273C21.8707 19.448 21.9822 19.6871 21.9972 19.9415C22.0121 20.196 21.9293 20.4465 21.7657 20.642C21.6021 20.8374 21.3701 20.963 21.117 20.9931L21 21.0001H2.99999C2.74511 20.9999 2.49996 20.9023 2.31462 20.7273C2.12929 20.5523 2.01776 20.3132 2.00282 20.0587C1.98788 19.8043 2.07067 19.5538 2.23426 19.3583C2.39785 19.1629 2.62989 19.0372 2.88299 19.0071L2.99999 19.0001H3.99999V6.36014C3.99999 5.76014 4.35599 5.22414 4.89799 4.98614L5.02599 4.93714L13.026 2.27014ZM13 4.38814L5.99999 6.72114V19.0001H13V4.38814ZM15 11.2211V19.0001H18V11.8201L15 11.2211Z" fill="#E6E6E6"/>
</g>
</svg>
